<mxfile host="app.diagrams.net" modified="2023-10-14T01:39:35.795Z" agent="Mozilla/5.0 (Macintosh; Intel Mac OS X 10_15_7) AppleWebKit/537.36 (KHTML, like Gecko) Chrome/116.0.0.0 Safari/537.36" version="22.0.4" etag="VVHHICaf5LA7v_jmdFss" type="github">
  <diagram name="第 1 页" id="B960z_BTow9J_yTm7T1u">
    <mxGraphModel>
      <root>
        <mxCell id="0" />
        <mxCell id="1" parent="0" />
      </root>
    </mxGraphModel>
  </diagram>
</mxfile>
